<svg id="Capa_1" enable-background="new 0 0 505.994 505.994" height="512" viewBox="0 0 505.994 505.994" width="512" xmlns="http://www.w3.org/2000/svg"><g><path d="m437.945 410.603v-157.606c0-85.076-57.747-156.908-136.099-178.388v-25.76c0-26.935-21.914-48.849-48.849-48.849s-48.849 21.914-48.849 48.849v25.76c-78.351 21.48-136.099 93.311-136.099 178.388v157.606c-19.709 6.292-34.025 24.774-34.025 46.542 0 26.935 21.914 48.849 48.849 48.849s48.849-21.914 48.849-48.849c0-21.586-14.08-39.934-33.534-46.376 6.315-79.88 73.334-142.948 154.808-142.948s148.492 63.068 154.808 142.948c-19.454 6.442-33.534 24.79-33.534 46.376 0 26.935 21.914 48.849 48.849 48.849s48.849-21.914 48.849-48.849c.001-21.768-14.315-40.249-34.023-46.542zm-204.149-361.754c0-10.587 8.614-19.201 19.201-19.201s19.201 8.614 19.201 19.201v20.193c-6.313-.654-12.718-.993-19.201-.993s-12.888.339-19.201.993zm19.201 48.848c79.031 0 144.461 59.342 154.079 135.807-40.602-40.251-95.66-63.381-154.079-63.381-58.332 0-113.455 23.152-154.081 63.399 9.61-76.473 75.043-135.825 154.081-135.825zm-170.124 378.649c-10.587 0-19.201-8.614-19.201-19.201s8.614-19.2 19.201-19.2 19.201 8.613 19.201 19.2-8.613 19.201-19.201 19.201zm170.124-238.173c-65.02 0-122.312 33.728-155.3 84.605v-41.959c35.478-50.797 93.297-81.047 155.3-81.047 62.097 0 119.812 30.216 155.3 81.036v41.97c-32.988-50.877-90.28-84.605-155.3-84.605zm170.124 238.173c-10.587 0-19.201-8.614-19.201-19.201s8.614-19.2 19.201-19.2 19.201 8.613 19.201 19.2-8.615 19.201-19.201 19.201z"/></g></svg>